PathFileType	4	(X/Y/Z)	C:\Users\chris\Documents\GitHub\baseballds\vids\pitch4_Sports2D\pitch4_Sports2D_m_person00.trc
DataRate	CameraRate	NumFrames	NumMarkers	Units	OrigDataRate	OrigDataStartFrame	OrigNumFrames
30	30	8	22	m	30	208	238
Frame#	Time	Hip			RHip			RKnee			RAnkle			RBigToe			RSmallToe			RHeel			LHip			LKnee			LAnkle			LBigToe			LSmallToe			LHeel			Neck			Head			Nose			RShoulder			RElbow			RWrist			LShoulder			LElbow			LWrist		
		X1	Y1	Z1	X2	Y2	Z2	X3	Y3	Z3	X4	Y4	Z4	X5	Y5	Z5	X6	Y6	Z6	X7	Y7	Z7	X8	Y8	Z8	X9	Y9	Z9	X10	Y10	Z10	X11	Y11	Z11	X12	Y12	Z12	X13	Y13	Z13	X14	Y14	Z14	X15	Y15	Z15	X16	Y16	Z16	X17	Y17	Z17	X18	Y18	Z18	X19	Y19	Z19	X20	Y20	Z20	X21	Y21	Z21	X22	Y22	Z22
208	6.933333333333334	0.9465052229383822	0.5680058148010945	0.0	0.902026163935493	0.5548056772680455	0.0	0.8474754506717295	0.2445210146847447	0.0	0.5129481996188757	0.028663821876970436	0.0	0.5965374310029952	-0.1601451118204148	0.0	0.5458996287430556	-0.13910127298261366	0.0	0.4314058108557636	0.02580166400670745	0.0	0.9894382090910961	0.5425109028992907	0.0	1.0173154537918445	0.3619603257988167	0.0	0.9724612925764745	0.2710820539640057	0.0	1.0054111618944104	0.2071113627196267	0.0	1.0225045348881816	0.21602729501418952	0.0	0.9661786589399443	0.2696191414450134	0.0	1.1681754673747369	0.9107936176821853	0.0	1.304830127892215	1.0383079633779175	0.0	1.325327888054068	0.9060575270777607	0.0	1.0707232584096766	0.8915382460211205	0.0	0.8636643759725989	0.9114070130293366	0.0	1.0233009770415513	0.7170095267115506	0.0	1.2026268226678944	0.8632201943948767	0.0	1.325338749065972	0.9663012809700203	0.0	1.4562352118347417	0.9931410887809241	0.0
209	6.966666666666667	0.9652604444147463	0.5684951815511421	0.0	0.9484979770580879	0.5487512380922704	0.0	0.838743828803451	0.25902328485656106	0.0	0.5579318370878608	0.05183645143046704	0.0	0.5915399013087248	-0.15087282956254347	0.0	0.5582650622890498	-0.12796226330035343	0.0	0.48310647917267935	0.05223900084770215	0.0	0.9757198839191618	0.5532272953213582	0.0	0.9889140871373099	0.35691289635578255	0.0	0.9274325336877426	0.2659409435786332	0.0	0.9661339798364376	0.20903418837296386	0.0	0.9849714529193513	0.2120630684204913	0.0	0.9187588210238676	0.2629985195473071	0.0	1.1707210063591442	0.9111960590480821	0.0	1.300363772714698	1.0394113116264792	0.0	1.3191900102745155	0.912998393535004	0.0	1.1004298121991631	0.891763340295831	0.0	0.9069529723718895	0.9197273075852558	0.0	1.1156804045521034	0.8127111319617882	0.0	1.1814353839158531	0.8666912453493525	0.0	1.2297397411092104	0.9354211615808095	0.0	1.3572890491263971	0.9476191832167592	0.0
210	7.0	0.9765983175658624	0.5745334442473274	0.0	0.9938754624229609	0.54434925976417	0.0	0.8440600628132375	0.27200479667049404	0.0	0.612608137605498	0.09332640827260617	0.0	0.5761573923803313	-0.11381967818269316	0.0	0.5688254779175924	-0.09342459163815965	0.0	0.5503806641399401	0.09653471654698349	0.0	0.9434374439369582	0.5753626461291426	0.0	0.9620179182406187	0.37447566088572853	0.0	0.9035042466194763	0.2535654728185691	0.0	0.955606226109354	0.21039588140192164	0.0	0.9682487152826326	0.20662026242571802	0.0	0.8910844967146737	0.24118425591814063	0.0	1.1653778039356435	0.9119565688204242	0.0	1.2771018648438603	1.0492526537531623	0.0	1.2897190436082493	0.9320001365153272	0.0	1.1387949136165831	0.8828390987245409	0.0	0.9987305426771127	0.8889588253583086	0.0	1.1620183356273028	0.8989794205801358	0.0	1.1308621857022894	0.8786040122960189	0.0	1.080535933408894	0.8678252593186366	0.0	1.2064283314264614	0.8829272109203582	0.0
211	7.033333333333333	0.9822663904023137	0.582575422773006	0.0	1.02861935357849	0.5438970668613787	0.0	0.86411334197927	0.2774219215628447	0.0	0.6660730345141015	0.14506808780119274	0.0	0.5513190926439331	-0.04589054719932525	0.0	0.5729998817100956	-0.03245026993637186	0.0	0.6167943013978971	0.15445285792091554	0.0	0.9159004739966856	0.593544645954477	0.0	0.9602993691860262	0.40616114057851677	0.0	0.8965629432816041	0.24468207636929146	0.0	0.9599168829054306	0.21121569868854798	0.0	0.9551925294063025	0.20605633876297008	0.0	0.8763912614319189	0.22896020452952381	0.0	1.1524587354344444	0.9100892224084017	0.0	1.2336563311498885	1.0639990087978803	0.0	1.2342653730803812	0.955971205298024	0.0	1.1823438384055356	0.8652435896379708	0.0	1.1527270835981038	0.8450899335804399	0.0	1.1885635484932617	0.9504306280678408	0.0	1.0663900311395207	0.8816869664994599	0.0	0.9544830379155642	0.783519860062977	0.0	1.075868674978942	0.8130004663716432	0.0
212	7.066666666666666	0.9873032633180191	0.5888623065302869	0.0	1.05025665157643	0.5462336416238237	0.0	0.8875800285730733	0.2748404986220901	0.0	0.7069247423007087	0.19226158711468566	0.0	0.5323239416860688	0.031922465068952334	0.0	0.5744410841346336	0.037957367670921796	0.0	0.6654847493802554	0.2115424030099693	0.0	0.9088177017350706	0.6007196709830004	0.0	0.9684200884431654	0.418136557653883	0.0	0.8934741438828382	0.2417781965234406	0.0	0.960899671419626	0.2152282246627936	0.0	0.93137251888336	0.2135908124455074	0.0	0.8682512051195473	0.2382004096686823	0.0	1.1347015085826875	0.9068646207158271	0.0	1.1848637981990155	1.0718197648558965	0.0	1.175278174908673	0.971280644377684	0.0	1.218114445006953	0.8458521241903036	0.0	1.3221005842698716	0.8218852985139431	0.0	1.2500120130937773	0.9548157000704116	0.0	1.0120900410549083	0.869688274851197	0.0	0.894652122522235	0.7115926745198057	0.0	1.007752515722762	0.7383822746295275	0.0
213	7.1	0.9972548588870705	0.5938958885098538	0.0	1.0654127719770172	0.5510095125166822	0.0	0.9071923661937237	0.27236600243202985	0.0	0.7282037114725883	0.22446132213675443	0.0	0.5325389714511304	0.09097265032055553	0.0	0.5785868292656569	0.09319165423526792	0.0	0.6876678755492073	0.25392465155921795	0.0	0.9193769270577552	0.6041426177030623	0.0	0.9603668202894649	0.4045534992223617	0.0	0.8906106312755872	0.24224834314161492	0.0	0.9501360146319096	0.2245740231242634	0.0	0.9041435091988791	0.222999344866399	0.0	0.8684927405139735	0.2550877648912411	0.0	1.116963856471599	0.908399744489526	0.0	1.1444485938538067	1.0682459403665057	0.0	1.1374291780197874	0.9735376107519723	0.0	1.237529969288804	0.8369175799052245	0.0	1.433148501453571	0.8225931823642383	0.0	1.3713896962551155	0.9280839241377251	0.0	0.9792847589267298	0.8551487728987891	0.0	0.8824910206255611	0.6740646371310687	0.0	0.977503294555728	0.6623069578855261	0.0
214	7.133333333333333	1.0149227043548021	0.6019390546337821	0.0	1.0832581058038266	0.5616932443531568	0.0	0.9289881434731753	0.2809545580967881	0.0	0.7336615225038491	0.24414264306428532	0.0	0.5490053654274208	0.12212450046872804	0.0	0.5864503138167481	0.12530408752456904	0.0	0.6909806374588605	0.2794792565223836	0.0	0.9398598379058288	0.6119218504452381	0.0	0.9381724545170003	0.3877978216676413	0.0	0.8936428259200978	0.24408882172012078	0.0	0.9341876158226301	0.2309868233670592	0.0	0.8920247023921135	0.2250965323002917	0.0	0.8784756015088995	0.2595038178475374	0.0	1.1057591728748544	0.9157994579357982	0.0	1.11637960413888	1.061067476509491	0.0	1.1182879412575835	0.9723857684728922	0.0	1.2434226035070792	0.8420003785427094	0.0	1.4498955282125798	0.8220832591138573	0.0	1.4669076322009662	0.8909675657846664	0.0	0.9689499519074443	0.853392068302924	0.0	0.889614780161647	0.6731097896479867	0.0	0.9591249325895804	0.6199982253869318	0.0
215	7.166666666666667	1.0403216742655892	0.6183811639730278	0.0	1.1084375380440434	0.5826133787735213	0.0	0.9622355157669353	0.30123703201243107	0.0	0.7372070960885927	0.2617051334414752	0.0	0.57061987807841	0.1380080454852582	0.0	0.5975331532729184	0.14371572301611743	0.0	0.6947457416761458	0.29586332358029177	0.0	0.9663098817873637	0.62731077839426	0.0	0.9228789705548959	0.38607378992464075	0.0	0.90022318510975	0.24781844818737803	0.0	0.9219987661717483	0.2287862596624189	0.0	0.8942911672632068	0.22297006494974667	0.0	0.8878685870369549	0.2479306674485954	0.0	1.104129715371832	0.9256795891375557	0.0	1.103909317293023	1.0601710004001457	0.0	1.1039106118284794	0.9780711572427858	0.0	1.2405611325049537	0.8547241932739449	0.0	1.3816871996897868	0.8026432829252683	0.0	1.4077429623391418	0.8464273213965804	0.0	0.9761052921360885	0.8688158010630472	0.0	0.9040936852474282	0.6925770858037985	0.0	0.9541627506408974	0.6366631356428558	0.0
